<svg width="24" height="20" viewBox="0 0 24 20" fill="none" xmlns="http://www.w3.org/2000/svg">
<path d="M16.3934 10.4918C16.776 10.4918 17.1107 10.6557 17.3975 10.9836C17.6844 11.3115 17.8825 11.6667 17.9918 12.0492C18.1831 12.623 18.2445 13.2104 18.1762 13.8115C18.1079 14.4126 17.8552 14.959 17.418 15.4508C17.1175 15.7787 16.776 15.9426 16.3934 15.9426C15.9836 15.9426 15.6352 15.7787 15.3484 15.4508C15.0615 15.123 14.8497 14.7678 14.7131 14.3852C14.5765 13.8115 14.5423 13.224 14.6107 12.623C14.679 12.0219 14.918 11.4754 15.3279 10.9836C15.6557 10.6557 16.0109 10.4918 16.3934 10.4918ZM7.29508 10.4918C7.6776 10.4918 8.01229 10.6557 8.29918 10.9836C8.58607 11.3115 8.79781 11.6667 8.93443 12.0492C9.09836 12.623 9.14617 13.2104 9.07787 13.8115C9.00956 14.4126 8.75683 14.959 8.31967 15.4508C8.01913 15.7787 7.6776 15.9426 7.29508 15.9426C6.88525 15.9426 6.53689 15.7787 6.25 15.4508C5.96311 15.123 5.75137 14.7678 5.61475 14.3852C5.47814 13.8115 5.44399 13.224 5.5123 12.623C5.5806 12.0219 5.81967 11.4754 6.22951 10.9836C6.55738 10.6557 6.91257 10.4918 7.29508 10.4918ZM21.7213 5.4918C23.0055 6.96721 23.6475 8.85246 23.6475 11.1475C23.6475 13.1148 23.3607 14.6858 22.7869 15.8607C22.4044 16.571 21.8989 17.1926 21.2705 17.7254C20.6421 18.2582 19.9727 18.6612 19.2623 18.9344C18.9071 19.071 18.5314 19.2008 18.1352 19.3238C17.7391 19.4467 17.3087 19.5492 16.8443 19.6311C16.3798 19.7131 15.9495 19.7746 15.5533 19.8156C15.1571 19.8566 14.7814 19.8907 14.4262 19.918C14.071 19.9454 13.6954 19.9658 13.2992 19.9795C12.903 19.9932 12.4863 20 12.0492 20H10.9836L10.041 19.959L9.05738 19.8975L7.95082 19.7951C7.21311 19.7131 6.48907 19.5628 5.77869 19.3443C4.79508 19.071 3.84563 18.6612 2.93033 18.1148C2.01503 17.5683 1.3388 16.8169 0.901639 15.8607C0.300546 14.6858 0 13.1148 0 11.1475C0 8.9071 0.642076 7.02186 1.92623 5.4918C1.68033 4.72678 1.55738 3.93443 1.55738 3.11475C1.55738 2.02186 1.80328 0.983607 2.29508 0C3.33333 0 4.22131 0.191257 4.95902 0.57377C5.36885 0.765027 5.79235 1.0041 6.22951 1.29098C6.66667 1.57787 7.14481 1.91257 7.66393 2.29508C9.05738 1.96721 10.5191 1.80328 12.0492 1.80328C13.4153 1.80328 14.7404 1.95355 16.0246 2.2541C16.9809 1.48907 17.8689 0.915301 18.6885 0.532787C19.4262 0.177596 20.3279 0 21.3934 0C21.8579 1.01093 22.0902 2.04918 22.0902 3.11475C22.0902 3.93443 21.9672 4.72678 21.7213 5.4918ZM18.8525 16.8852C19.3169 16.5027 19.6995 16.0041 20 15.3893C20.3005 14.7746 20.4508 14.0574 20.4508 13.2377C20.4508 12.0902 20.123 11.1202 19.4672 10.3279C18.8661 9.53552 17.9918 9.13934 16.8443 9.13934C16.6257 9.13934 16.291 9.15984 15.8402 9.20082C15.3893 9.2418 14.7951 9.31694 14.0574 9.42623C13.7295 9.48087 13.3743 9.52186 12.9918 9.54918C12.6093 9.5765 12.2268 9.59016 11.8443 9.59016C11.4344 9.59016 11.0383 9.5765 10.6557 9.54918C10.2732 9.52186 9.91803 9.48087 9.59016 9.42623C8.87978 9.31694 8.29918 9.2418 7.84836 9.20082C7.39754 9.15984 7.06284 9.13934 6.84426 9.13934C5.69672 9.13934 4.80874 9.53552 4.18033 10.3279C3.52459 11.1202 3.19672 12.0902 3.19672 13.2377C3.19672 14.0574 3.34699 14.7746 3.64754 15.3893C3.94809 16.0041 4.3306 16.5027 4.79508 16.8852C5.28689 17.2404 5.86066 17.5137 6.51639 17.7049C7.22678 17.9235 7.89617 18.0669 8.52459 18.1352C9.15301 18.2036 9.84973 18.2377 10.6148 18.2377H13.0328C13.8251 18.2377 14.5287 18.2036 15.1434 18.1352C15.7582 18.0669 16.4208 17.9235 17.1311 17.7049C17.7869 17.5137 18.3607 17.2404 18.8525 16.8852Z" fill="black"/>
</svg>
