<svg width="40" height="40" viewBox="0 0 40 40" fill="none" xmlns="http://www.w3.org/2000/svg">
<circle cx="20" cy="20" r="18.5" fill="white" stroke="#3178C6" stroke-width="3"/>
<g clip-path="url(#clip0_18_496)">
<path fill-rule="evenodd" clip-rule="evenodd" d="M21.3441 23.7163V26.6495C21.8209 26.894 22.3849 27.0772 23.036 27.1995C23.6871 27.3217 24.3733 27.3828 25.0947 27.3828C25.7977 27.3828 26.4656 27.3156 27.0983 27.1811C27.7311 27.0467 28.2859 26.8252 28.7628 26.5166C29.2396 26.208 29.6171 25.8047 29.8953 25.3066C30.1734 24.8086 30.3125 24.1929 30.3125 23.4596C30.3125 22.9279 30.233 22.462 30.0741 22.0617C29.9151 21.6615 29.6859 21.3055 29.3863 20.9939C29.0868 20.6822 28.7276 20.4026 28.3088 20.1551C27.8901 19.9076 27.4178 19.6739 26.892 19.4539C26.5069 19.295 26.1615 19.1407 25.8558 18.991C25.5501 18.8413 25.2903 18.6885 25.0763 18.5327C24.8623 18.3768 24.6973 18.2118 24.5812 18.0377C24.465 17.8635 24.4069 17.6664 24.4069 17.4464C24.4069 17.2448 24.4589 17.063 24.5628 16.901C24.6668 16.7391 24.8135 16.6001 25.003 16.484C25.1925 16.3679 25.4248 16.2777 25.6999 16.2136C25.975 16.1494 26.2807 16.1173 26.6169 16.1173C26.8614 16.1173 27.1197 16.1357 27.3918 16.1723C27.6638 16.209 27.9374 16.2655 28.2126 16.3419C28.4877 16.4183 28.7551 16.5146 29.0149 16.6306C29.2747 16.7468 29.5147 16.8812 29.7348 17.034V14.2932C29.2885 14.1221 28.801 13.9953 28.2722 13.9128C27.7433 13.8303 27.1365 13.7891 26.4519 13.7891C25.7549 13.7891 25.0947 13.8639 24.4711 14.0137C23.8476 14.1634 23.2989 14.3971 22.825 14.7148C22.3512 15.0327 21.9768 15.4375 21.7017 15.9294C21.4266 16.4213 21.2891 17.0095 21.2891 17.6939C21.2891 18.5678 21.5413 19.3133 22.0456 19.9306C22.5499 20.5477 23.3156 21.0702 24.3427 21.498C24.7462 21.663 25.1222 21.8249 25.4707 21.9838C25.8191 22.1427 26.1202 22.3077 26.3739 22.4788C26.6276 22.6499 26.8278 22.8363 26.9746 23.038C27.1213 23.2396 27.1947 23.4688 27.1947 23.7254C27.1947 23.9149 27.1488 24.0905 27.0571 24.2525C26.9654 24.4145 26.8263 24.555 26.6398 24.6741C26.4534 24.7933 26.2211 24.8865 25.9429 24.9537C25.6647 25.021 25.3392 25.0545 24.9663 25.0545C24.3305 25.0545 23.7008 24.943 23.0772 24.72C22.4537 24.497 21.8759 24.1624 21.3441 23.7163ZM16.4129 16.4892H20.1758V14.082H9.6875V16.4892H13.432V27.207H16.4129V16.4892Z" fill="#3178C6"/>
</g>
<defs>
<clipPath id="clip0_18_496">
<rect width="22" height="15" fill="white" transform="translate(9 13)"/>
</clipPath>
</defs>
</svg>
