<svg width="40" height="40" viewBox="0 0 40 40" fill="none" xmlns="http://www.w3.org/2000/svg">
<circle cx="20" cy="20" r="18.5" fill="white" stroke="#72C4FF" stroke-width="3"/>
<path d="M22.0418 19.9878C22.0418 21.2263 21.0968 22.2303 19.9312 22.2303C18.7656 22.2303 17.8206 21.2263 17.8206 19.9878C17.8206 18.7494 18.7656 17.7453 19.9312 17.7453C21.0968 17.7453 22.0418 18.7494 22.0418 19.9878Z" fill="#72C4FF"/>
<path d="M19.9312 28.2341C21.5882 29.9459 23.2215 30.9584 24.5379 30.9584C24.9694 30.9584 25.3779 30.8619 25.7176 30.6453C26.8973 29.9216 27.3288 28.1131 26.9203 25.5331C26.8523 25.0747 26.7615 24.6172 26.6476 24.1344C27.1012 23.99 27.5097 23.8447 27.9182 23.7003C30.2106 22.76 31.4812 21.4578 31.4812 20.0356C31.4812 18.5891 30.2106 17.2869 27.9182 16.3709C27.5097 16.2022 27.1012 16.0578 26.6476 15.9369C26.7615 15.455 26.8523 14.9966 26.9203 14.5381C27.3059 11.9103 26.8753 10.0775 25.6947 9.35375C25.3541 9.13719 24.9456 9.04063 24.515 9.04063C23.2215 9.04063 21.5644 10.0531 19.9082 11.765C18.2741 10.0531 16.64 9.04063 15.3244 9.04063C14.8929 9.04063 14.4844 9.13719 14.1447 9.35375C12.965 10.0775 12.5335 11.8859 12.942 14.4659C13.01 14.9244 13.1009 15.3819 13.2147 15.8647C12.7612 16.0091 12.3526 16.1544 11.9441 16.2988C9.65175 17.2391 8.38116 18.5413 8.38116 19.9634C8.38116 21.41 9.65175 22.7122 11.9441 23.6281C12.3526 23.7969 12.7612 23.9413 13.2147 24.0622C13.1009 24.5441 13.01 25.0025 12.942 25.4609C12.5565 28.0409 12.987 29.8738 14.1447 30.5731C14.4853 30.7906 14.8938 30.8863 15.3244 30.8863C16.6409 30.9341 18.275 29.9216 19.9312 28.2341ZM18.6597 24.9791C19.0682 25.0034 19.4997 25.0034 19.9303 25.0034C20.3609 25.0034 20.7923 25.0034 21.2009 24.9791C20.7923 25.5575 20.3609 26.0881 19.9303 26.5944C19.4988 26.0881 19.0682 25.5575 18.6597 24.9791ZM15.8459 22.4956C16.0726 22.9053 16.2773 23.2916 16.527 23.6769C15.8238 23.5803 15.1656 23.4594 14.5303 23.315C14.735 22.6644 14.9618 21.9884 15.2335 21.3134C15.4153 21.6988 15.6191 22.1094 15.8459 22.4947V22.4956ZM14.5294 16.6841C15.1647 16.5397 15.8229 16.4188 16.5262 16.3222C16.2994 16.7084 16.0726 17.0938 15.845 17.5034C15.6173 17.9131 15.4135 18.2994 15.2326 18.7091C14.9379 18.0097 14.7103 17.3347 14.5294 16.6831V16.6841ZM15.7779 19.9878C16.0726 19.3372 16.3903 18.6856 16.7538 18.035C17.0944 17.4078 17.48 16.7816 17.8656 16.1544C18.5468 16.1066 19.227 16.0822 19.9312 16.0822C20.6573 16.0822 21.3385 16.1066 21.9968 16.1544C22.4053 16.7816 22.7679 17.4078 23.1085 18.035C23.472 18.6856 23.7897 19.3372 24.0844 19.9878C23.7897 20.6384 23.472 21.29 23.1085 21.9406C22.7679 22.5678 22.3823 23.1941 21.9968 23.8213C21.3156 23.8691 20.6353 23.8934 19.9312 23.8934C19.205 23.8934 18.5238 23.8691 17.8656 23.8213C17.457 23.1941 17.0944 22.5678 16.7538 21.9406C16.3903 21.2891 16.0726 20.6384 15.7779 19.9878ZM24.6518 18.6856L24.0394 17.48C23.8126 17.0703 23.6079 16.6841 23.3582 16.2988C24.0615 16.3953 24.7197 16.5163 25.355 16.6606C25.1512 17.3356 24.9235 18.0106 24.6518 18.6866V18.6856ZM24.6518 21.29C24.9244 21.965 25.1512 22.64 25.355 23.2916C24.7197 23.4359 24.0615 23.5569 23.3582 23.6534C23.585 23.2672 23.8118 22.8819 24.0394 22.4722C24.2441 22.1103 24.4479 21.7006 24.6518 21.2909V21.29ZM25.1732 29.6572C24.9915 29.7781 24.7647 29.8259 24.515 29.8259C23.4032 29.8259 22.0188 28.8613 20.6573 27.4147C21.3156 26.6675 21.9509 25.8228 22.5862 24.8825C23.6529 24.7859 24.6738 24.6172 25.6276 24.3763C25.7415 24.8103 25.8094 25.2444 25.8773 25.6784C26.195 27.7278 25.9453 29.1988 25.1741 29.6572H25.1732ZM26.3538 16.9494C28.8959 17.7209 30.4162 18.9022 30.4162 19.9878C30.4162 20.9281 29.3723 21.8684 27.5344 22.6166C27.1709 22.7609 26.7632 22.9063 26.3547 23.0263C26.06 22.0372 25.6965 21.0247 25.2429 19.9878C25.6965 18.9509 26.0829 17.9384 26.3547 16.9494H26.3538ZM24.5379 10.1497C24.7876 10.1497 24.9915 10.1975 25.1962 10.3184C25.9453 10.7769 26.217 12.2234 25.8994 14.2972C25.8315 14.7069 25.7406 15.1409 25.6497 15.5994C24.6968 15.3819 23.675 15.2131 22.6082 15.0931C21.9959 14.1528 21.3376 13.3091 20.6794 12.5609C22.0409 11.1378 23.4253 10.1497 24.537 10.1497H24.5379ZM21.2018 14.9966C20.7932 14.9722 20.3618 14.9722 19.9312 14.9722C19.5006 14.9722 19.0691 14.9722 18.6606 14.9966C19.0691 14.4181 19.5006 13.8875 19.9312 13.3813C20.3626 13.8875 20.7932 14.4425 21.2018 14.9966ZM14.6882 10.3184C14.87 10.1975 15.0968 10.1497 15.3465 10.1497C16.4582 10.1497 17.8426 11.1144 19.2041 12.5609C18.5459 13.3081 17.9106 14.1519 17.2753 15.0931C16.2085 15.1897 15.1876 15.3584 14.2338 15.5994C14.12 15.1653 14.052 14.7313 13.9841 14.2972C13.6665 12.2478 13.9162 10.8013 14.6873 10.3184H14.6882ZM13.5085 23.0263C10.9665 22.2547 9.44616 21.0734 9.44616 19.9878C9.44616 19.0475 10.49 18.1072 12.3279 17.36C12.6915 17.2156 13.0991 17.0703 13.5076 16.9503C13.8023 17.9394 14.1659 18.9519 14.6194 19.9888C14.1659 21.0256 13.7794 22.0625 13.5076 23.0272L13.5085 23.0263ZM13.985 25.6784C14.0529 25.2688 14.1438 24.8347 14.2347 24.3763C15.1876 24.5938 16.2094 24.7625 17.2762 24.8825C17.8885 25.8228 18.5468 26.6666 19.205 27.4147C17.8435 28.8369 16.4591 29.8259 15.3473 29.8259C15.0976 29.8259 14.8938 29.7781 14.6891 29.6572C13.917 29.1988 13.6682 27.7278 13.9859 25.6784H13.985Z" fill="#72C4FF"/>
</svg>
