<svg width="27" height="26" viewBox="0 0 27 26" fill="none" xmlns="http://www.w3.org/2000/svg">
<path d="M3.16318 8.90565H7.81952V23.343H3.16318V8.90565ZM21.0274 9.79737C21.9527 10.2786 22.7139 11.0076 23.3108 11.9842C23.9078 12.9609 24.2063 13.9587 24.2063 14.9778V23.343H19.5052V14.9778C19.5052 14.7514 19.4156 14.4966 19.2365 14.2135C19.0574 13.9304 18.8933 13.7464 18.744 13.6615C18.5052 13.5199 18.1769 13.4492 17.759 13.4492C17.3411 13.4492 17.0128 13.5058 16.774 13.619L14.8488 14.5107V23.343H10.1477V8.90565H14.8488V9.58506C15.7741 9.18874 16.8188 9.00473 17.9829 9.03304C19.147 9.06135 20.1618 9.31612 21.0274 9.79737ZM5.49135 3.34302C6.14801 3.34302 6.70021 3.55533 7.14793 3.97996C7.59566 4.40459 7.81952 4.9283 7.81952 5.55109C7.81952 6.17387 7.59566 6.70466 7.14793 7.14344C6.70021 7.58222 6.14801 7.80162 5.49135 7.80162C4.83469 7.80162 4.28249 7.58222 3.83477 7.14344C3.38704 6.70466 3.16318 6.17387 3.16318 5.55109C3.16318 4.9283 3.38704 4.40459 3.83477 3.97996C4.28249 3.55533 4.83469 3.34302 5.49135 3.34302Z" fill="black"/>
</svg>
