<svg width="40" height="40" viewBox="0 0 40 40" fill="none" xmlns="http://www.w3.org/2000/svg">
<circle cx="20" cy="20" r="18.5" fill="white" stroke="#CF649A" stroke-width="3"/>
<path fill-rule="evenodd" clip-rule="evenodd" d="M25.4647 7.68708C27.0617 7.97952 28.6637 8.69846 29.4404 10.1777C30.2406 11.7019 30.1567 13.185 29.4914 14.4336C28.8625 15.6139 27.7671 16.4961 26.6632 17.0888C25.5512 17.6857 24.2979 18.0612 23.199 18.1347C22.652 18.1714 22.0769 18.1377 21.5544 17.9691C21.0285 17.7994 20.45 17.4532 20.1292 16.8035C19.8235 16.1845 20.0775 15.4349 20.6965 15.1292C21.2771 14.8425 21.9725 15.0481 22.3089 15.5855C22.313 15.5869 22.3174 15.5884 22.3221 15.5899C22.4455 15.6297 22.6794 15.664 23.0321 15.6404C23.733 15.5935 24.6427 15.336 25.4806 14.8861C26.3266 14.432 26.9677 13.8534 27.2851 13.258C27.566 12.7308 27.638 12.1229 27.2269 11.3398C26.9764 10.8625 26.3049 10.3825 25.0145 10.1462C23.7669 9.91773 22.1839 9.97097 20.5587 10.309C18.9379 10.6462 17.3547 11.2503 16.0997 12.0549C14.8324 12.8673 14.0065 13.8125 13.6891 14.792C13.3458 15.8516 13.4675 16.5974 13.7766 17.2099C14.1157 17.8817 14.7368 18.504 15.5931 19.1701C16.0076 19.4926 16.4476 19.8036 16.9114 20.1315L16.9366 20.1494C17.4001 20.477 17.8894 20.8234 18.3467 21.1845C18.7319 21.4886 19.1254 21.8261 19.4856 22.2059C21.1022 21.8941 22.5029 21.928 23.6506 22.453C25.1285 23.1289 25.8694 24.4609 26.2179 25.9685C26.3734 26.6411 25.9541 27.3124 25.2815 27.4679C24.6089 27.6234 23.9376 27.2041 23.7821 26.5315C23.532 25.4491 23.1232 24.9609 22.6109 24.7265C22.2352 24.5547 21.6742 24.4569 20.8392 24.5327C21.6092 27.2394 20.2649 29.6905 18.619 31.079C17.7324 31.827 16.6469 32.3721 15.5618 32.4804C14.4269 32.5937 13.2144 32.2131 12.503 31.0284C11.8747 29.9822 11.8697 28.8699 12.1974 27.8794C12.5127 26.9265 13.1355 26.0687 13.8177 25.3587C14.6752 24.4662 15.7537 23.6782 16.7766 23.1301C16.3852 22.8222 15.957 22.5184 15.4935 22.1907L15.4492 22.1594C14.9995 21.8416 14.5185 21.5016 14.058 21.1434C13.1192 20.413 12.1389 19.5135 11.5448 18.3362C10.9207 17.0996 10.7772 15.6687 11.3108 14.0215C11.8705 12.2942 13.2054 10.9408 14.7504 9.95026C16.3077 8.9519 18.188 8.24867 20.0496 7.86142C21.9069 7.47507 23.825 7.38681 25.4647 7.68708ZM18.4025 25.1125C17.561 25.4944 16.4665 26.2102 15.6204 27.0907C15.0834 27.6497 14.7266 28.1939 14.5709 28.6647C14.4275 29.098 14.4599 29.4311 14.6462 29.7412C14.7492 29.9129 14.9072 30.0334 15.3135 29.9927C15.7696 29.9472 16.3961 29.6836 17.0069 29.1682C18.1761 28.1819 18.884 26.6561 18.4025 25.1125ZM22.2651 15.5674L22.2672 15.5686L22.2651 15.5674Z" fill="#CF649A"/>
</svg>
