<svg width="40" height="40" viewBox="0 0 40 40" fill="none" xmlns="http://www.w3.org/2000/svg">
<circle cx="20" cy="20" r="18.5" fill="white" stroke="#FE5B00" stroke-width="3"/>
<path d="M30.1738 19.3259L20.9413 10.0934C20.4097 9.56188 19.5472 9.56188 19.0156 10.0934L17.0984 12.0106L19.5303 14.4425C20.0956 14.2513 20.7434 14.3797 21.1944 14.8297C21.6472 15.2825 21.7747 15.9369 21.5788 16.5041L23.9225 18.8478C24.4897 18.6519 25.1441 18.7784 25.5969 19.2322C26.2297 19.865 26.2297 20.8906 25.5969 21.5234C24.9641 22.1563 23.9384 22.1563 23.3047 21.5234C22.8284 21.0472 22.7113 20.3478 22.9522 19.7609L20.7659 17.5747V23.3272C20.9197 23.4041 21.0659 23.5053 21.1944 23.6338C21.8272 24.2666 21.8272 25.2922 21.1944 25.9259C20.5616 26.5588 19.535 26.5588 18.9031 25.9259C18.2703 25.2922 18.2703 24.2666 18.9031 23.6338C19.0597 23.4772 19.2406 23.3591 19.4338 23.2803V17.4744C19.2406 17.3956 19.0597 17.2784 18.9031 17.1209C18.4241 16.6419 18.3088 15.9378 18.5544 15.35L16.1572 12.9519L9.82625 19.2819C9.29469 19.8144 9.29469 20.6769 9.82625 21.2084L19.0597 30.4409C19.5913 30.9725 20.4528 30.9725 20.9853 30.4409L30.1747 21.2516C30.7063 20.72 30.7063 19.8566 30.1747 19.325L30.1738 19.3259Z" fill="#FE5B00"/>
</svg>
