<svg width="40" height="40" viewBox="0 0 40 40" fill="none" xmlns="http://www.w3.org/2000/svg">
<circle cx="20" cy="20" r="18.5" fill="white" stroke="#764ABC" stroke-width="3"/>
<path d="M24.3401 24.1671C25.1704 24.0825 25.8003 23.3788 25.7717 22.5343C25.7431 21.6898 25.0273 21.0142 24.1683 21.0142H24.1111C23.2234 21.0424 22.5363 21.7743 22.5649 22.6469C22.5936 23.0692 22.7653 23.4351 23.023 23.6884C22.0495 25.5746 20.5607 26.9539 18.3274 28.108C16.8098 28.8962 15.2351 29.1777 13.6604 28.9807C12.3719 28.8118 11.3698 28.2489 10.7398 27.3198C9.82358 25.9405 9.73771 24.4485 10.5108 22.9566C11.0548 21.8868 11.9137 21.0986 12.4578 20.7045C12.3432 20.3386 12.1714 19.7193 12.0855 19.269C7.93385 22.2247 8.36337 26.222 9.62319 28.108C10.568 29.5156 12.4864 30.3882 14.6052 30.3882C15.1778 30.3882 15.7504 30.3319 16.3231 30.1912C19.988 29.4874 22.7654 27.348 24.3401 24.1671ZM29.3794 20.6764C27.2033 18.1711 23.9966 16.7917 20.3316 16.7917H19.8735C19.6158 16.285 19.0718 15.9472 18.4705 15.9472H18.4132C17.5257 15.9753 16.8386 16.7072 16.8671 17.5799C16.8958 18.4244 17.6116 19.1 18.4705 19.1H18.5277C19.1577 19.0719 19.7017 18.6777 19.9307 18.1429H20.4461C22.6222 18.1429 24.6837 18.7622 26.5449 19.9727C27.9764 20.9016 29.0072 22.1121 29.5798 23.5759C30.0666 24.7582 30.0379 25.9123 29.5225 26.8976C28.7209 28.3895 27.3752 29.2059 25.6 29.2059C24.4546 29.2059 23.3667 28.8681 22.794 28.6147C22.479 28.8962 21.9063 29.3466 21.5055 29.6282C22.7367 30.1911 23.9966 30.5008 25.1991 30.5008C27.9478 30.5008 29.9807 29.0088 30.7538 27.5169C31.5841 25.8841 31.5268 23.0692 29.3794 20.6764ZM14.8342 24.6455C14.8629 25.49 15.5787 26.1656 16.4376 26.1656H16.4949C17.3825 26.1375 18.0697 25.4055 18.041 24.5329C18.0124 23.6884 17.2966 23.0128 16.4376 23.0128H16.3804C16.3231 23.0128 16.2371 23.0128 16.18 23.0409C15.0061 21.1267 14.5193 19.0437 14.6911 16.7916C14.8056 15.1026 15.3783 13.6388 16.3804 12.4283C17.2107 11.3868 18.8141 10.8801 19.9022 10.852C22.9371 10.7956 24.2255 14.5114 24.3115 16.0034C24.6837 16.0879 25.3136 16.2849 25.7431 16.4257C25.3995 11.8655 22.5363 9.50082 19.7877 9.50082C17.2107 9.50082 14.8342 11.3306 13.8893 14.033C12.5723 17.6362 13.4312 21.0986 15.0346 23.8292C14.8915 24.0262 14.8056 24.3359 14.8342 24.6456V24.6455Z" fill="#764ABC"/>
</svg>
