<svg width="1171" height="920" viewBox="0 0 1171 925" fill="none" xmlns="http://www.w3.org/2000/svg">
<mask id="path-1-outside-1_154_58" maskUnits="userSpaceOnUse" x="50" y="124" width="1092" height="748" fill="black">
<rect fill="#fff" x="50" y="124" width="1092" height="748"/>
<path d="M74 148H243V703H524V848H74V148ZM602.32 148H771.32V848H602.32V148ZM708.32 287V148H845.32C904.654 148 954.32 157.333 994.32 176C1034.99 194 1065.65 220 1086.32 254C1106.99 288 1117.32 329 1117.32 377C1117.32 423.667 1106.99 464.333 1086.32 499C1065.65 533 1034.99 559.333 994.32 578C954.32 596 904.654 605 845.32 605H708.32V466H845.32C879.32 466 905.987 458.333 925.32 443C944.654 427.667 954.32 405.667 954.32 377C954.32 347.667 944.654 325.333 925.32 310C905.987 294.667 879.32 287 845.32 287H708.32Z"/>
</mask>
<path d="M74 148H243V703H524V848H74V148ZM602.32 148H771.32V848H602.32V148ZM708.32 287V148H845.32C904.654 148 954.32 157.333 994.32 176C1034.99 194 1065.65 220 1086.32 254C1106.99 288 1117.32 329 1117.32 377C1117.32 423.667 1106.99 464.333 1086.32 499C1065.65 533 1034.99 559.333 994.32 578C954.32 596 904.654 605 845.32 605H708.32V466H845.32C879.32 466 905.987 458.333 925.32 443C944.654 427.667 954.32 405.667 954.32 377C954.32 347.667 944.654 325.333 925.32 310C905.987 294.667 879.32 287 845.32 287H708.32Z" fill="#fff"/>
<path d="M74 148V124H50V148H74ZM243 148H267V124H243V148ZM243 703H219V727H243V703ZM524 703H548V679H524V703ZM524 848V872H548V848H524ZM74 848H50V872H74V848ZM74 172H243V124H74V172ZM219 148V703H267V148H219ZM243 727H524V679H243V727ZM500 703V848H548V703H500ZM524 824H74V872H524V824ZM98 848V148H50V848H98ZM602.32 148V124H578.32V148H602.32ZM771.32 148H795.32V124H771.32V148ZM771.32 848V872H795.32V848H771.32ZM602.32 848H578.32V872H602.32V848ZM708.32 287H684.32V311H708.32V287ZM708.32 148V124H684.32V148H708.32ZM994.32 176L984.171 197.748L984.388 197.849L984.606 197.946L994.32 176ZM1086.32 499L1106.83 511.466L1106.88 511.378L1106.94 511.29L1086.32 499ZM994.32 578L1004.17 599.886L1004.25 599.849L1004.33 599.812L994.32 578ZM708.32 605H684.32V629H708.32V605ZM708.32 466V442H684.32V466H708.32ZM925.32 443L910.407 424.196L910.407 424.196L925.32 443ZM925.32 310L910.407 328.804L910.407 328.804L925.32 310ZM602.32 172H771.32V124H602.32V172ZM747.32 148V848H795.32V148H747.32ZM771.32 824H602.32V872H771.32V824ZM626.32 848V148H578.32V848H626.32ZM732.32 287V148H684.32V287H732.32ZM708.32 172H845.32V124H708.32V172ZM845.32 172C902.292 172 948.245 180.983 984.171 197.748L1004.47 154.252C960.396 133.684 907.015 124 845.32 124V172ZM984.606 197.946C1021.34 214.206 1047.99 237.14 1065.81 266.466L1106.83 241.534C1083.32 202.86 1048.63 173.794 1004.03 154.054L984.606 197.946ZM1065.81 266.466C1083.76 296 1093.32 332.486 1093.32 377H1141.32C1141.32 325.514 1130.21 280 1106.83 241.534L1065.81 266.466ZM1093.32 377C1093.32 420.026 1083.83 456.309 1065.71 486.71L1106.94 511.29C1130.14 472.358 1141.32 427.307 1141.32 377H1093.32ZM1065.81 486.534C1047.94 515.943 1021.18 539.261 984.308 556.188L1004.33 599.812C1048.79 579.405 1083.37 550.057 1106.83 511.466L1065.81 486.534ZM984.472 556.114C948.456 572.321 902.39 581 845.32 581V629C906.918 629 960.185 619.679 1004.17 599.886L984.472 556.114ZM845.32 581H708.32V629H845.32V581ZM732.32 605V466H684.32V605H732.32ZM708.32 490H845.32V442H708.32V490ZM845.32 490C882.713 490 915.307 481.574 940.234 461.804L910.407 424.196C896.667 435.093 875.927 442 845.32 442V490ZM940.234 461.804C966.276 441.15 978.32 411.661 978.32 377H930.32C930.32 399.672 923.032 414.183 910.407 424.196L940.234 461.804ZM978.32 377C978.32 341.884 966.417 311.962 940.234 291.196L910.407 328.804C922.891 338.705 930.32 353.449 930.32 377H978.32ZM940.234 291.196C915.307 271.426 882.713 263 845.32 263V311C875.927 311 896.667 317.907 910.407 328.804L940.234 291.196ZM845.32 263H708.32V311H845.32V263Z" fill="black" mask="url(#path-1-outside-1_154_58)"/>
</svg>
