<svg width="1044" height="700" viewBox="0 0 1044 700" fill="none" xmlns="http://www.w3.org/2000/svg">
<mask id="path-1-outside-1_108_17" maskUnits="userSpaceOnUse" x="-24" y="-24" width="1092" height="748" fill="black">
<rect fill="white" x="-24" y="-24" width="1092" height="748"/>
<path d="M9.53674e-07 -4.76837e-05H169V555H450V700H9.53674e-07V-4.76837e-05ZM528.32 -4.76837e-05H697.32V700H528.32V-4.76837e-05ZM634.32 139V-4.76837e-05H771.32C830.654 -4.76837e-05 880.32 9.33328 920.32 27.9999C960.987 46 991.654 72 1012.32 106C1032.99 140 1043.32 181 1043.32 229C1043.32 275.667 1032.99 316.333 1012.32 351C991.654 385 960.987 411.333 920.32 430C880.32 448 830.654 457 771.32 457H634.32V318H771.32C805.32 318 831.987 310.333 851.32 295C870.654 279.667 880.32 257.667 880.32 229C880.32 199.667 870.654 177.333 851.32 162C831.987 146.667 805.32 139 771.32 139H634.32Z"/>
</mask>
<path d="M9.53674e-07 -4.76837e-05H169V555H450V700H9.53674e-07V-4.76837e-05ZM528.32 -4.76837e-05H697.32V700H528.32V-4.76837e-05ZM634.32 139V-4.76837e-05H771.32C830.654 -4.76837e-05 880.32 9.33328 920.32 27.9999C960.987 46 991.654 72 1012.32 106C1032.99 140 1043.32 181 1043.32 229C1043.32 275.667 1032.99 316.333 1012.32 351C991.654 385 960.987 411.333 920.32 430C880.32 448 830.654 457 771.32 457H634.32V318H771.32C805.32 318 831.987 310.333 851.32 295C870.654 279.667 880.32 257.667 880.32 229C880.32 199.667 870.654 177.333 851.32 162C831.987 146.667 805.32 139 771.32 139H634.32Z" fill="#D9D9D9"/>
<path d="M0 -4.57764e-05V-24H-24V-4.57764e-05H0ZM169 -4.57764e-05H193V-24H169V-4.57764e-05ZM169 555H145V579H169V555ZM450 555H474V531H450V555ZM450 700V724H474V700H450ZM0 700H-24V724H0V700ZM0 24H169V-24H0V24ZM145 -4.57764e-05V555H193V-4.57764e-05H145ZM169 579H450V531H169V579ZM426 555V700H474V555H426ZM450 676H0V724H450V676ZM24 700V-4.57764e-05H-24V700H24ZM528.32 -4.57764e-05V-24H504.32V-4.57764e-05H528.32ZM697.32 -4.57764e-05H721.32V-24H697.32V-4.57764e-05ZM697.32 700V724H721.32V700H697.32ZM528.32 700H504.32V724H528.32V700ZM634.32 139H610.32V163H634.32V139ZM634.32 -4.57764e-05V-24H610.32V-4.57764e-05H634.32ZM920.32 28L910.171 49.7484L910.388 49.8495L910.606 49.9462L920.32 28ZM1012.32 351L1032.83 363.466L1032.88 363.378L1032.94 363.29L1012.32 351ZM920.32 430L930.169 451.886L930.251 451.849L930.332 451.812L920.32 430ZM634.32 457H610.32V481H634.32V457ZM634.32 318V294H610.32V318H634.32ZM851.32 295L836.407 276.196L851.32 295ZM851.32 162L836.407 180.804L851.32 162ZM528.32 24H697.32V-24H528.32V24ZM673.32 -4.57764e-05V700H721.32V-4.57764e-05H673.32ZM697.32 676H528.32V724H697.32V676ZM552.32 700V-4.57764e-05H504.32V700H552.32ZM658.32 139V-4.57764e-05H610.32V139H658.32ZM634.32 24H771.32V-24H634.32V24ZM771.32 24C828.292 24 874.245 32.9828 910.171 49.7484L930.47 6.25156C886.396 -14.3163 833.015 -24 771.32 -24V24ZM910.606 49.9462C947.341 66.2057 973.986 89.1399 991.812 118.466L1032.83 93.534C1009.32 54.86 974.633 25.7942 930.034 6.05367L910.606 49.9462ZM991.812 118.466C1009.76 148 1019.32 184.486 1019.32 229H1067.32C1067.32 177.514 1056.21 132 1032.83 93.534L991.812 118.466ZM1019.32 229C1019.32 272.026 1009.83 308.309 991.706 338.71L1032.94 363.29C1056.14 324.358 1067.32 279.307 1067.32 229H1019.32ZM991.812 338.534C973.936 367.943 947.184 391.261 910.308 408.188L930.332 451.812C974.79 431.405 1009.37 402.057 1032.83 363.466L991.812 338.534ZM910.472 408.114C874.456 424.321 828.39 433 771.32 433V481C832.918 481 886.185 471.679 930.169 451.886L910.472 408.114ZM771.32 433H634.32V481H771.32V433ZM658.32 457V318H610.32V457H658.32ZM634.32 342H771.32V294H634.32V342ZM771.32 342C808.713 342 841.307 333.574 866.234 313.804L836.407 276.196C822.667 287.093 801.927 294 771.32 294V342ZM866.234 313.804C892.276 293.15 904.32 263.661 904.32 229H856.32C856.32 251.672 849.032 266.183 836.407 276.196L866.234 313.804ZM904.32 229C904.32 193.884 892.417 163.962 866.234 143.196L836.407 180.804C848.891 190.705 856.32 205.449 856.32 229H904.32ZM866.234 143.196C841.307 123.426 808.713 115 771.32 115V163C801.927 163 822.667 169.907 836.407 180.804L866.234 143.196ZM771.32 115H634.32V163H771.32V115Z" fill="black" mask="url(#path-1-outside-1_108_17)"/>
</svg>
